PathFileType	4	(X/Y/Z)	Walk5.trc
DataRate	CameraRate	NumFrames	NumMarkers	Units	OrigDataRate	OrigDataStartFrame	OrigNumFrames
200.000000	200.000000	9	61	mm	200.000000	692	775
Frame#	Times		RCAR		LTH3		RTH2		LBHD		LCAR		LUA1		LFA1		RTB3		LWRU		LElbow		RToe		RTB2		RMT5		C7		RMT1		RBHD		LWRR		RMMAL		RTB1		RWRU		RFA1		LTH2		RTB4		RLFC		LTH4		RPSI		RLMAL		T10		LASI		RBack		RTH1		STRN		LPSI		LElbowM		LLFC		RElbow		LTB4		RUA1		LTB3		LACR1		LCAL		RTH3		RCAL		RElbowM		LTB1		LToe		CLAV		LMFC		LTB2		RASI		LFHD		RACR1		RTH4		LMT5		RFHD		RWRR		LMMAL		RMFC		LLMAL		LMT1		LTH1
			X1	Y1	Z1	X2	Y2	Z2	X3	Y3	Z3	X4	Y4	Z4	X5	Y5	Z5	X6	Y6	Z6	X7	Y7	Z7	X8	Y8	Z8	X9	Y9	Z9	X10	Y10	Z10	X11	Y11	Z11	X12	Y12	Z12	X13	Y13	Z13	X14	Y14	Z14	X15	Y15	Z15	X16	Y16	Z16	X17	Y17	Z17	X18	Y18	Z18	X19	Y19	Z19	X20	Y20	Z20	X21	Y21	Z21	X22	Y22	Z22	X23	Y23	Z23	X24	Y24	Z24	X25	Y25	Z25	X26	Y26	Z26	X27	Y27	Z27	X28	Y28	Z28	X29	Y29	Z29	X30	Y30	Z30	X31	Y31	Z31	X32	Y32	Z32	X33	Y33	Z33	X34	Y34	Z34	X35	Y35	Z35	X36	Y36	Z36	X37	Y37	Z37	X38	Y38	Z38	X39	Y39	Z39	X40	Y40	Z40	X41	Y41	Z41	X42	Y42	Z42	X43	Y43	Z43	X44	Y44	Z44	X45	Y45	Z45	X46	Y46	Z46	X47	Y47	Z47	X48	Y48	Z48	X49	Y49	Z49	X50	Y50	Z50	X51	Y51	Z51	X52	Y52	Z52	X53	Y53	Z53	X54	Y54	Z54	X55	Y55	Z55	X56	Y56	Z56	X57	Y57	Z57	X58	Y58	Z58	X59	Y59	Z59	X60	Y60	Z60	X61	Y61	Z61

692	3.46	843.79	901.48	247.83	686.23	615.35	-169.13	637	682.25	156.17	545.56	1631.3	-113.84	538.53	786.05	-282.53	514.55	1275.3	-286.03	465.44	973.34	-295.25	347.08	228.59	86.069	477.01	840.16	-279.14	468.48	1124.3	-293.79	338.06	29.526	91.61	389.84	304.16	157.04	254.41	55.201	142.52	527.35	1504.3	-34.273	299.2	44.307	68.959	557.54	1640.1	27.881	547.48	842.93	-234.09	273.43	164.54	44.959	484.76	355.24	105.75	775.86	899.28	256.34	693.34	1006.1	276.27	725.19	726.2	-163.46	416.04	291.26	93.068	512.61	487.8	170.93	660.84	703.29	-186.16	436.95	1011.9	33.361	226.5	168.15	120.92	426.36	1279.3	-18.308	645.15	1027.5	-155.3	463.09	1420.3	108.47	580.14	786.76	182.56	709.01	1246.3	-38.815	434.45	1007.3	-44.456	438.45	1124.9	-222.1	704.67	516.17	-157.81	611.32	1139.8	272.96	754.37	294.88	-75.372	617.48	1295.9	224.98	747.71	198.87	-74.723	584.41	1450.5	-205.83	644.93	28.297	-74.001	551.57	598.9	175.2	169.79	182.14	66.1	575.36	1113.7	202.97	760.39	384.74	-78.036	903.66	31.246	-78.849	660.68	1418.3	-40.899	715.18	525.67	-27.99	733.35	295.54	-147.98	652.13	1036	124.45	724.67	1679.9	-86.793	617.28	1461.4	119.81	568.74	691.37	182.48	803.97	21.558	-149.3	730.58	1683.4	-10.179	814.54	934.94	197.79	731.06	91.045	-35.048	545.17	488.13	46.507	704.77	68.755	-116.31	851.21	39.283	-64.405	637.72	792.52	-199.97
693	3.465	845.11	899.5	248.47	690.75	615.72	-169.82	645.02	682.81	156.62	550.4	1631.6	-114.95	547.24	786.56	-283.72	520.98	1275.5	-287.04	473.23	973.45	-296.61	354.9	230.49	86.86	485.37	840.32	-280.45	475.56	1124.4	-295.1	341.32	30.43	92.642	398.4	305.67	157.65	258.91	58.274	143.02	532.28	1504.8	-35.178	303.37	45.976	69.662	562.35	1640.8	26.782	555.52	843.38	-235.07	280.53	167.3	45.548	494.35	355.5	106.87	777.19	898.04	256.61	695.53	1005.8	275.71	730.26	726.37	-163.92	424.57	292.29	93.974	522.78	487.47	171.64	665.85	703.8	-186.87	442.21	1012	32.297	233.36	171.78	121.35	431.52	1279.7	-19.335	650.9	1028.3	-155.92	467.82	1420.8	107.47	586.75	786.7	182.36	714.25	1247	-39.277	439.99	1007.7	-45.532	445.14	1124.9	-223.56	708.44	516.19	-158.32	614.77	1140.1	271.66	756.4	294.57	-75.655	621.59	1296.3	224.07	748.86	198.6	-74.869	589.85	1451	-206.54	644.91	28.3	-74.043	560.59	598.48	175.73	177.22	186.97	66.242	579.01	1114.3	201.41	763.23	384.37	-78.474	903.75	31.125	-78.827	665.75	1419	-41.51	719.67	525.87	-28.591	735.26	295.33	-148.23	657.53	1036.4	123.55	729.46	1680.4	-87.986	621.93	1462	119.13	576.57	691.19	182.72	803.95	21.638	-149.32	735.38	1684.1	-11.386	816.52	933.18	198.23	731.14	91.009	-34.977	556.27	487.62	47.202	704.8	68.811	-116.27	851.22	39.348	-64.414	643.28	793.17	-200.72
694	3.47	846.33	897.51	249.15	695.03	616.05	-170.5	653.01	683.47	157.1	555.22	1632	-116.01	556.06	787.12	-284.92	527.45	1275.9	-288.04	481.11	973.59	-297.98	362.92	232.42	87.612	493.84	840.52	-281.77	482.69	1124.6	-296.41	345.24	31.501	93.823	407.13	307.2	158.23	263.91	61.444	143.63	537.19	1505.2	-36.043	308.14	47.809	70.486	567.17	1641.5	25.724	563.66	843.88	-236.07	287.88	170.04	46.102	504.06	355.85	107.95	778.42	896.79	256.88	697.67	1005.5	275.18	735.18	726.46	-164.41	433.22	293.35	94.831	532.95	487.24	172.33	670.67	704.28	-187.57	447.43	1012.2	31.203	240.51	175.33	121.76	436.66	1280	-20.35	656.6	1029	-156.53	472.53	1421.3	106.5	593.32	786.71	182.2	719.45	1247.6	-39.694	445.47	1008.2	-46.619	451.89	1124.8	-225.03	711.97	516.17	-158.83	618.2	1140.4	270.38	758.34	294.25	-75.968	625.68	1296.6	223.18	749.94	198.34	-75.048	595.29	1451.5	-207.2	644.87	28.3	-74.074	569.58	598.16	176.25	184.89	191.56	66.389	582.65	1115	199.84	765.95	384	-78.941	903.81	31.061	-78.822	670.79	1419.6	-42.075	723.89	526.01	-29.204	737.01	295.12	-148.48	662.74	1036.8	122.81	734.24	1680.9	-89.156	626.55	1462.7	118.49	584.36	691.09	182.96	803.93	21.708	-149.33	740.17	1684.8	-12.571	818.4	931.41	198.71	731.2	90.977	-34.924	567.3	487.27	47.781	704.81	68.862	-116.24	851.2	39.423	-64.429	648.72	793.79	-201.45
695	3.475	847.46	895.52	249.87	699.07	616.33	-171.15	660.95	684.22	157.61	560.03	1632.3	-117.03	565	787.74	-286.11	533.96	1276.2	-289.02	489.07	973.76	-299.36	371.14	234.37	88.32	502.42	840.76	-283.1	489.88	1124.8	-297.74	349.82	32.731	95.141	416.02	308.74	158.8	269.44	64.676	144.34	542.07	1505.7	-36.869	313.5	49.778	71.424	571.98	1642.3	24.708	571.92	844.43	-237.07	295.48	172.74	46.621	513.87	356.31	108.98	779.57	895.53	257.14	699.75	1005.2	274.67	739.93	726.47	-164.94	441.99	294.45	95.638	543.12	487.12	172.99	675.31	704.71	-188.24	452.59	1012.4	30.081	247.93	178.79	122.16	441.78	1280.4	-21.352	662.23	1029.7	-157.12	477.2	1421.8	105.55	599.83	786.79	182.06	724.59	1248.3	-40.065	450.9	1008.6	-47.715	458.68	1124.8	-226.52	715.27	516.13	-159.33	621.61	1140.7	269.11	760.18	293.92	-76.304	629.74	1297	222.32	750.96	198.08	-75.253	600.73	1452	-207.82	644.82	28.298	-74.097	578.54	597.93	176.76	192.8	195.89	66.529	586.28	1115.7	198.27	768.54	383.61	-79.431	903.84	31.039	-78.83	675.8	1420.3	-42.595	727.84	526.1	-29.818	738.62	294.9	-148.75	667.76	1037.2	122.22	739.02	1681.4	-90.298	631.14	1463.3	117.89	592.11	691.08	183.22	803.9	21.765	-149.34	744.97	1685.5	-13.731	820.21	929.62	199.23	731.24	90.95	-34.89	578.25	487.1	48.262	704.78	68.908	-116.23	851.17	39.501	-64.447	654.02	794.39	-202.17
696	3.48	848.5	893.52	250.62	702.9	616.55	-171.78	668.84	685.08	158.13	564.83	1632.7	-117.99	574.06	788.42	-287.29	540.5	1276.6	-289.98	497.12	973.97	-300.74	379.56	236.31	88.984	511.11	841.03	-284.44	497.12	1125	-299.06	355.1	34.104	96.58	425.05	310.3	159.34	275.5	67.929	145.15	546.94	1506.2	-37.657	319.48	51.846	72.465	576.79	1643.1	23.737	580.28	845.04	-238.07	303.33	175.36	47.106	523.77	356.86	109.95	780.62	894.27	257.4	701.79	1004.9	274.19	744.53	726.41	-165.5	450.86	295.57	96.402	553.27	487.14	173.62	679.75	705.1	-188.9	457.72	1012.6	28.936	255.63	182.13	122.54	446.86	1280.8	-22.342	667.81	1030.5	-157.69	481.83	1422.3	104.63	606.29	786.95	181.96	729.69	1249	-40.392	456.27	1009.2	-48.816	465.53	1124.8	-228.03	718.38	516.06	-159.81	625.01	1141	267.85	761.94	293.59	-76.655	633.77	1297.4	221.48	751.93	197.82	-75.476	606.16	1452.5	-208.39	644.77	28.296	-74.112	587.44	597.83	177.24	200.93	199.92	66.652	589.9	1116.4	196.7	771.02	383.22	-79.935	903.85	31.047	-78.847	680.79	1420.9	-43.071	731.5	526.14	-30.423	740.1	294.68	-149.02	672.6	1037.6	121.79	743.78	1681.9	-91.411	635.69	1463.9	117.33	599.8	691.17	183.48	803.86	21.81	-149.35	749.76	1686.2	-14.863	821.92	927.82	199.78	731.27	90.928	-34.871	589.11	487.09	48.662	704.74	68.95	-116.22	851.12	39.577	-64.467	659.16	794.94	-202.87
697	3.485	849.45	891.52	251.4	706.52	616.73	-172.38	676.68	686.05	158.66	569.62	1633	-118.91	583.22	789.16	-288.46	547.08	1277	-290.92	505.25	974.2	-302.14	388.18	238.24	89.605	519.89	841.34	-285.78	504.42	1125.2	-300.4	361.04	35.592	98.116	434.22	311.88	159.87	282.08	71.16	146.05	551.79	1506.7	-38.408	326.05	53.973	73.591	581.6	1643.9	22.811	588.76	845.7	-239.08	311.45	177.88	47.56	533.74	357.52	110.86	781.58	893.02	257.66	703.79	1004.6	273.74	748.98	726.28	-166.09	459.83	296.7	97.13	563.38	487.29	174.21	684.02	705.44	-189.52	462.8	1012.9	27.771	263.61	185.33	122.9	451.91	1281.3	-23.319	673.33	1031.2	-158.24	486.43	1422.8	103.74	612.7	787.2	181.88	734.75	1249.6	-40.676	461.58	1009.7	-49.92	472.41	1124.9	-229.56	721.31	515.96	-160.26	628.38	1141.3	266.62	763.62	293.26	-77.014	637.77	1297.8	220.67	752.85	197.55	-75.711	611.59	1453.1	-208.93	644.71	28.295	-74.121	596.28	597.85	177.71	209.29	203.64	66.751	593.51	1117.2	195.13	773.39	382.82	-80.443	903.84	31.075	-78.871	685.74	1421.6	-43.504	734.87	526.13	-31.009	741.48	294.45	-149.29	677.25	1038	121.52	748.55	1682.4	-92.492	640.22	1464.5	116.8	607.44	691.37	183.74	803.83	21.842	-149.36	754.55	1687	-15.964	823.56	926.01	200.37	731.3	90.911	-34.866	599.88	487.26	49.004	704.68	68.989	-116.22	851.07	39.649	-64.487	664.15	795.44	-203.54
698	3.49	850.31	889.53	252.2	709.96	616.87	-172.96	684.44	687.14	159.19	574.41	1633.4	-119.77	592.49	789.96	-289.62	553.69	1277.4	-291.84	513.46	974.48	-303.53	397.01	240.14	90.186	528.77	841.68	-287.13	511.77	1125.5	-301.73	367.65	37.164	99.726	443.51	313.45	160.37	289.18	74.322	147	556.62	1507.3	-39.124	333.22	56.118	74.785	586.41	1644.7	21.932	597.35	846.42	-240.1	319.85	180.28	47.986	543.76	358.28	111.7	782.45	891.79	257.93	705.74	1004.3	273.32	753.28	726.09	-166.71	468.9	297.84	97.834	573.43	487.58	174.77	688.13	705.72	-190.12	467.85	1013.2	26.592	271.87	188.36	123.23	456.94	1281.7	-24.284	678.79	1031.9	-158.77	491	1423.4	102.86	619.06	787.56	181.81	739.76	1250.3	-40.918	466.83	1010.2	-51.025	479.34	1124.9	-231.1	724.09	515.85	-160.7	631.74	1141.7	265.41	765.22	292.93	-77.372	641.74	1298.1	219.9	753.73	197.3	-75.949	617.02	1453.6	-209.42	644.65	28.295	-74.126	605.05	598	178.14	217.88	207.03	66.822	597.11	1117.9	193.59	775.65	382.42	-80.945	903.83	31.116	-78.898	690.66	1422.2	-43.895	737.96	526.09	-31.569	742.78	294.23	-149.56	681.73	1038.3	121.39	753.31	1682.8	-93.537	644.71	1465.1	116.32	615.01	691.68	184	803.8	21.865	-149.36	759.34	1687.7	-17.031	825.11	924.2	200.98	731.33	90.902	-34.873	610.56	487.58	49.312	704.62	69.026	-116.23	851.01	39.714	-64.507	668.99	795.9	-204.2
699	3.495	851.1	887.55	253.03	713.24	616.97	-173.49	692.14	688.34	159.72	579.18	1633.8	-120.59	601.85	790.81	-290.76	560.33	1277.9	-292.74	521.74	974.78	-304.93	406.04	242	90.73	537.74	842.07	-288.48	519.18	1125.8	-303.07	374.9	38.784	101.38	452.91	315.02	160.86	296.78	77.37	147.99	561.44	1507.8	-39.807	340.96	58.244	76.023	591.23	1645.6	21.099	606.04	847.19	-241.13	328.52	182.54	48.391	553.83	359.14	112.47	783.23	890.59	258.2	707.65	1004.1	272.93	757.45	725.85	-167.36	478.06	298.96	98.527	583.43	488.02	175.3	692.07	705.96	-190.69	472.87	1013.5	25.408	280.39	191.19	123.54	461.93	1282.2	-25.237	684.19	1032.6	-159.27	495.53	1423.9	102.01	625.38	788.02	181.76	744.72	1250.9	-41.121	472.03	1010.8	-52.126	486.31	1125	-232.66	726.74	515.72	-161.1	635.07	1142	264.23	766.74	292.6	-77.719	645.67	1298.5	219.17	754.56	197.05	-76.183	622.44	1454.2	-209.88	644.58	28.297	-74.129	613.74	598.29	178.55	226.7	210.08	66.863	600.7	1118.6	192.08	777.8	382.03	-81.43	903.8	31.163	-78.926	695.55	1422.9	-44.247	740.77	526.03	-32.094	744	294	-149.82	686.04	1038.7	121.4	758.07	1683.3	-94.545	649.17	1465.8	115.88	622.52	692.12	184.25	803.77	21.878	-149.36	764.14	1688.4	-18.063	826.59	922.4	201.63	731.36	90.899	-34.887	621.16	488.05	49.603	704.55	69.062	-116.24	850.95	39.769	-64.526	673.67	796.31	-204.82
700	3.5	851.81	885.59	253.89	716.38	617.03	-174	699.76	689.65	160.24	583.95	1634.2	-121.35	611.32	791.73	-291.9	567	1278.4	-293.63	530.09	975.12	-306.34	415.28	243.8	91.242	546.79	842.49	-289.84	526.64	1126.1	-304.4	382.76	40.417	103.05	462.42	316.59	161.34	304.88	80.259	149	566.24	1508.4	-40.457	349.25	60.315	77.284	596.04	1646.4	20.312	614.85	848.01	-242.15	337.46	184.62	48.777	563.92	360.08	113.17	783.94	889.41	258.5	709.52	1003.8	272.56	761.49	725.58	-168.01	487.32	300.05	99.221	593.36	488.6	175.8	695.87	706.16	-191.23	477.86	1013.9	24.225	289.19	193.8	123.82	466.9	1282.7	-26.179	689.52	1033.3	-159.75	500.03	1424.4	101.17	631.66	788.59	181.71	749.65	1251.6	-41.288	477.17	1011.4	-53.22	493.31	1125	-234.23	729.28	515.59	-161.48	638.39	1142.3	263.08	768.18	292.28	-78.048	649.57	1298.9	218.48	755.35	196.8	-76.405	627.84	1454.8	-210.3	644.52	28.301	-74.129	622.35	598.72	178.92	235.74	212.76	66.875	604.28	1119.3	190.61	779.84	381.64	-81.889	903.78	31.213	-78.953	700.4	1423.5	-44.563	743.33	525.94	-32.579	745.18	293.78	-150.09	690.2	1039	121.53	762.82	1683.8	-95.514	653.6	1466.4	115.48	629.96	692.68	184.48	803.74	21.884	-149.37	768.94	1689.2	-19.057	827.99	920.6	202.3	731.38	90.903	-34.908	631.67	488.66	49.892	704.49	69.097	-116.25	850.89	39.815	-64.541	678.2	796.67	-205.42
